# xmcd
#
# Track frame offsets: 
#        150
#        17296
#        30062
#        50493
#        76891
#        93153
#        109886
#        130707
#        151117
#
# Disc length: 2283 seconds
#
# Revision: 0
# Processed by: cddbd v1.4b42PL1 Copyright (c) Steve Scherf et al.
# Submitted via: ExactAudioCopy v0.90a11
#
DISCID=5108e909
DTITLE=Gary Gerloft Band - Ancestor Worship
DYEAR=1900
DGENRE=
TTITLE0=Deep Blue Sea
TTITLE1=Nobody's Fault But mine
TTITLE2=Honey Bee
TTITLE3=Hawaii
TTITLE4=Ragged But Right
TTITLE5=How Can A Poor Man Stand Such Times
TTITLE6=Ray Of Sunshine
TTITLE7=The Camp At 2324
TTITLE8=Bye, Bye, Farewell
EXTD=
EXTT0=
EXTT1=
EXTT2=
EXTT3=
EXTT4=
EXTT5=
EXTT6=
EXTT7=
EXTT8=
PLAYORDER=
